<svg width="158" height="42" viewBox="0 0 158 42" fill="none" xmlns="http://www.w3.org/2000/svg">
<path d="M139.348 1.02393H138.171L130.051 20.5468H131.224L131.367 20.1981L131.323 33.9991C131.323 34.2603 131.535 34.4729 131.796 34.4729H134.948C135.209 34.4729 135.422 34.2603 135.422 33.9991C135.422 33.9991 135.469 17.3073 135.469 10.3452L139.35 1.02393H139.348Z" fill="#349ED9"/>
<path d="M82.8343 17.8854C82.8231 17.5777 82.6907 17.3576 82.3848 17.2513C82.2543 17.2047 79.3691 15.9458 75.8126 15.9458C68.4141 15.9458 67.9478 20.9384 67.8825 21.6807C67.7557 23.1391 67.655 25.1515 67.8154 27.4846C67.9926 30.0359 69.3223 31.9103 71.7301 32.9062C73.3153 33.5627 74.977 33.6914 76.6593 33.4004C77.4071 33.2699 78.142 33.0517 78.9085 32.8689C78.9439 34.8458 78.5411 35.9107 77.9256 36.5262C77.4053 37.0465 76.4 37.3934 75.1766 37.3953C73.8674 37.3971 72.3063 37.0036 70.8237 36.0002C70.7099 35.9219 70.3201 35.5582 70.0087 35.8697C69.8837 35.9984 68.6211 37.8764 68.4719 38.1357C68.2798 38.4695 68.3861 38.6411 68.692 38.8705C70.6372 40.3159 72.7614 40.9145 75.0013 40.9145C77.2412 40.9145 79.3785 40.5173 80.8537 39.0439C82.6553 37.2405 82.8325 34.4859 82.8343 32.6656C82.838 28.9766 82.8399 18.0645 82.8343 17.8854ZM78.8674 28.8573C78.8786 29.7375 76.4784 30.0695 75.6428 30.0695C73.4459 30.0695 71.8494 29.1892 71.7618 26.9773C71.7021 25.476 71.6834 23.9616 71.8009 22.464C71.9445 20.6792 72.9311 19.687 74.6954 19.5807C75.9226 19.5098 77.1647 19.687 78.3993 19.7541C78.7593 19.7728 78.8768 19.9462 78.8693 20.3174C78.8488 21.6341 78.8581 28.0367 78.8674 28.8573Z" fill="#1F4181"/>
<path d="M116.16 23.4209C116.16 22.8353 116.143 22.246 116.076 21.666C115.901 20.1572 115.401 18.8349 114.388 17.8222C112.669 16.1026 110.231 15.9702 109.269 15.9702C106.85 15.9702 104.73 16.3171 102.618 17.6133C102.154 17.8986 102.132 18.0049 102.436 18.4787C102.805 19.0531 103.182 19.6238 103.556 20.1963C103.935 20.7763 104.01 20.7875 104.631 20.4668C105.994 19.7655 107.568 19.4429 108.892 19.4746C112.108 19.5529 112.231 21.4272 112.188 23.6018C111.007 23.4713 109.994 23.337 108.754 23.337C104.681 23.337 101.395 24.9073 101.307 28.6206C101.175 34.2827 107.234 34.4748 109.11 34.4748C112.331 34.4748 115.586 33.5405 115.905 33.3763C116.052 33.2999 116.168 33.1637 116.168 32.9866V31.1029C116.168 28.5422 116.17 25.9834 116.164 23.4228L116.16 23.4209ZM112.115 30.4912C111.662 30.9444 109.187 31.0302 108.971 31.0302C105.75 31.0302 105.293 29.5904 105.293 28.7567C105.293 27.343 106.361 26.5094 108.866 26.5094C109.916 26.5094 111.054 26.653 112.195 26.7686C112.195 30.5453 112.232 30.3737 112.113 30.4912H112.115Z" fill="#1F4181"/>
<path d="M65.6464 16.7962C65.6464 16.5631 65.458 16.3748 65.2249 16.3748H62.1103C61.8772 16.3748 61.6888 16.5631 61.6888 16.7962C61.6888 16.8 61.6888 16.8037 61.6888 16.8074C61.6888 34.9428 61.6926 27.6581 61.6888 33.6335C61.6888 33.8667 61.8772 34.055 62.1103 34.055H65.2249C65.458 34.055 65.6464 33.8667 65.6464 33.6335C65.6464 33.6335 65.6464 33.6317 65.6464 33.6298V16.7962Z" fill="#1F4181"/>
<path d="M88.8807 16.7962C88.8807 16.5631 88.6923 16.3748 88.4592 16.3748C84.8784 16.3748 88.9236 16.3748 85.3446 16.3748C85.1115 16.3748 84.9231 16.5631 84.9231 16.7962C84.9231 38.4565 84.9231 24.2395 84.9231 33.6335C84.9231 33.8667 85.1115 34.055 85.3446 34.055H86.5793C86.7825 34.055 86.9858 34.055 87.191 34.055H88.4592C88.6923 34.055 88.8807 33.8667 88.8807 33.6335C88.8807 33.6335 88.8807 33.6317 88.8807 33.6298C88.8807 28.9132 88.8807 32.867 88.8807 16.7944V16.7962Z" fill="#1F4181"/>
<path d="M59.2121 9.5918C52.9998 9.5918 58.3542 9.5918 56.0808 9.5918C55.8495 9.5918 55.6593 9.78016 55.6593 10.0114V11.4232C55.6593 12.4024 55.6611 14.0175 55.6611 16.6863C54.7827 16.3767 53.5761 15.9589 51.9442 15.9589C49.5141 15.9589 47.5633 16.9287 46.5301 17.9601C44.5811 19.909 44.4487 22.8595 44.4375 25.0956C44.4245 28.3072 44.7434 30.6944 46.4088 32.3617C48.6748 34.6258 52.0356 34.4673 52.3955 34.4673C54.5999 34.4673 56.7466 34.0682 58.8484 33.3819C59.4005 33.2028 59.6355 33.0928 59.6355 32.7888C59.6355 24.2228 59.6355 46.4649 59.6355 10.0133C59.6355 9.78203 59.4452 9.59366 59.214 9.59366L59.2121 9.5918ZM55.6574 30.1666C55.6593 30.3755 55.6518 30.5396 55.3963 30.6049C54.4824 30.8436 53.5611 30.9928 52.6342 30.9928C49.7285 30.9928 48.742 29.6798 48.6114 28.0162C48.52 26.845 48.4697 23.3481 48.5853 22.4156C48.8016 20.6681 49.8218 19.4801 52.4421 19.4801C53.4082 19.4801 54.3444 19.6815 55.2452 20.1198C55.5026 20.2447 55.6313 20.3883 55.6593 20.6513C55.6593 20.9236 55.6462 26.375 55.6574 30.1666Z" fill="#1F4181"/>
<path d="M23.4767 17.9323C22.1413 16.582 20.2129 15.9404 18.0197 15.9404C16.3747 15.9404 14.7801 16.4085 13.2508 17.328C13.055 17.4455 12.9002 17.5425 12.6578 17.3653C10.7275 15.9498 8.57153 15.9628 7.87775 15.9628C4.64383 15.9628 1.8575 17.2161 1.60946 17.3877C1.44534 17.4865 1.3353 17.6618 1.33344 17.867C1.33903 20.879 1.33717 23.2942 1.33717 33.3969C1.33717 33.7569 1.52367 34.0497 1.75493 34.0534H4.84152C5.07278 34.0534 5.25928 33.7643 5.26114 33.4044H5.26301C5.26301 21.9271 5.25928 20.4463 5.28166 20.2449C5.29844 19.9595 5.43086 19.842 5.73299 19.7749C7.37793 19.4075 9.48912 19.2863 10.5466 20.3419C11.4754 21.265 11.4436 22.8913 11.453 23.6933C11.4586 25.5863 11.4567 27.0186 11.4567 33.6338C11.4567 33.8632 11.6432 34.0515 11.8745 34.0534H14.9573C15.1886 34.0534 15.3751 33.8669 15.377 33.6375H15.3788C15.3788 22.841 15.3919 24.0532 15.3863 23.6914C15.3863 22.7253 15.3564 22.3915 15.0413 20.7466C14.9834 20.4426 15.0506 20.3251 15.293 20.1964C16.1211 19.7562 16.9865 19.5474 17.8835 19.5474C19.2804 19.5474 20.1066 19.9465 20.6046 20.4444C21.3991 21.2389 21.4793 22.4773 21.4849 23.4247C21.4904 25.424 21.4886 27.5203 21.4886 33.6338C21.4886 33.8632 21.6751 34.0515 21.9063 34.0534H24.9892C25.2205 34.0534 25.407 33.8669 25.4088 33.6375H25.4107C25.4107 21.6977 25.4256 24.2173 25.4182 23.628C25.3939 21.7294 25.1421 19.6126 23.4767 17.9304V17.9323Z" fill="#CE2E30"/>
<path d="M130.047 20.547L125.817 30.7188C125.541 30.7598 125.034 30.868 124.493 30.868C122.475 30.868 122.268 29.3461 122.212 27.8206V10.0265C122.212 10.0265 122.212 10.0209 122.212 10.0172C122.212 9.78407 122.024 9.5957 121.791 9.5957H118.657C118.424 9.5957 118.236 9.78407 118.236 10.0153H118.234V27.2443C118.245 28.0985 118.124 31.1683 119.98 33.0239C120.869 33.9136 122.214 34.5234 124.245 34.4768L121.558 40.9353H122.732C129.256 25.2506 121.369 44.2177 131.218 20.5452H130.043L130.047 20.547Z" fill="#1F4181"/>
<path d="M135.467 10.3452V12.9413L131.367 21.2387V20.1999L131.371 20.1925L135.467 10.3452Z" fill="#238FC5"/>
<path d="M155.695 21.3711C155.695 17.7101 155.685 14.3195 153.389 12.0255C151.027 9.6607 147.571 9.56745 146.467 9.56372H137.949C137.688 9.56372 137.477 9.77633 137.477 10.0374V34.0065C137.477 34.2676 137.69 34.4802 137.951 34.4802C137.951 34.4802 144.115 34.4858 146.267 34.4728C148.928 34.4523 151.433 33.9599 153.32 32.08C155.831 29.5697 155.693 26.3059 155.693 21.3692L155.695 21.3711ZM151.334 26.4327C151.252 28.9635 149.753 30.4108 147.041 30.5824C145.266 30.6943 143.477 30.601 141.64 30.601V13.3683C141.668 13.3665 145.508 13.3143 147.201 13.4262C148.408 13.5008 151.209 14.036 151.327 17.6523C151.422 20.4274 151.416 23.6557 151.334 26.4327Z" fill="#349ED9"/>
<path d="M42.3562 16.7963C42.3562 16.5651 42.1678 16.3767 41.9365 16.3767H38.8127C38.5777 16.3767 38.393 16.5632 38.393 16.7963V29.001C38.3595 29.2527 38.2326 29.3851 37.9678 29.4896C36.4348 30.1013 32.0091 30.7951 31.4627 26.9886C31.416 26.6548 31.4291 16.7982 31.4291 16.7982C31.4291 16.5651 31.2407 16.3767 31.0076 16.3767H27.8949C27.6618 16.3767 27.4734 16.5651 27.4734 16.7982C27.4734 16.7982 27.4678 24.3347 27.5014 27.1807C27.52 28.8835 28.2455 30.3027 29.4279 31.4833C30.8752 32.9287 32.6936 33.5292 34.7525 33.5292C36.2501 33.5292 37.0353 33.2569 38.3949 33.0145C38.3949 33.3707 38.4285 33.9059 38.3744 34.3964C38.1935 35.9817 37.3785 36.9608 35.9517 37.2816C32.8782 37.9679 30.0993 35.8437 30.0266 35.8008C29.8196 35.6833 29.6368 35.7747 29.5548 35.8399C29.4802 35.9015 27.8818 38.091 27.8445 38.3297C27.824 38.4472 27.8501 38.5591 27.9303 38.658C29.7431 40.924 37.2255 42.1978 40.3457 39.0776C42.1044 37.3189 42.3394 34.8608 42.3524 33.4639C42.3692 31.7593 42.3618 31.252 42.3618 16.7945L42.3562 16.7963Z" fill="#CE2E30"/>
<path d="M66.0679 12.257C66.0623 13.6334 65.0477 14.6591 63.6937 14.6591C62.3155 14.6591 61.2543 13.583 61.2692 12.1954C61.2841 10.8601 62.3435 9.84365 63.7105 9.85112C65.0869 9.85858 66.0754 10.8675 66.0679 12.257Z" fill="#F6BD17"/>
<path d="M89.3022 12.257C89.2966 13.6334 88.282 14.6591 86.928 14.6591C85.5498 14.6591 84.4886 13.583 84.5035 12.1954C84.5184 10.8601 85.5778 9.84365 86.9448 9.85112C88.3212 9.85858 89.3096 10.8675 89.3022 12.257Z" fill="#F6BD17"/>
<path d="M99.5579 31.2184C99.5579 30.9871 99.3695 30.7987 99.1364 30.7987C98.4724 30.7987 98.2132 30.8566 97.6742 30.8566C96.9897 30.8566 96.2699 30.7391 95.7066 30.1758C95.6805 30.1497 94.9103 29.4093 94.9103 28.2381C94.9103 16.7105 94.9103 21.5352 94.9103 20.0675C96.0423 20.0675 97.1557 20.0712 98.2393 20.0675H98.6216C98.6216 20.0675 98.6254 20.0675 98.6272 20.0675C98.8604 20.0675 99.0487 19.8791 99.0487 19.646V17.0462C99.0487 16.813 98.8604 16.6247 98.6272 16.6247C98.6254 16.6247 98.6235 16.6247 98.6216 16.6247H98.3549C98.3512 16.6247 98.3475 16.6247 98.3437 16.6247C97.3385 16.6209 96.3333 16.6247 95.328 16.6247C95.1807 16.6247 95.0334 16.6116 94.8748 16.6042C94.7779 15.2763 94.6827 13.9987 94.5914 12.7193C94.5522 12.1822 94.4011 12.0312 93.8659 12.0293C93.67 12.0293 91.3686 12.0293 91.3686 12.0293C91.1355 12.0293 90.9471 12.2177 90.9471 12.4508C90.9471 12.4527 90.9471 12.4564 90.9471 12.4582C90.9471 12.6783 90.9639 20.4293 90.9415 20.4293C90.9415 22.2794 90.9509 27.8222 90.9509 27.8297C90.9546 29.9203 91.2977 31.5373 92.5641 32.8036C93.9461 34.1856 95.8017 34.484 97.4187 34.484C97.7917 34.484 98.948 34.4467 99.2147 34.3646C99.4068 34.3273 99.5541 34.1558 99.5541 33.9525V31.2202L99.5579 31.2184Z" fill="#1F4181"/>
</svg>
